<svg width="323" height="68" viewBox="0 0 323 68" fill="none" xmlns="http://www.w3.org/2000/svg">
<path d="M101.325 48.9838H89V13H101.574C105.185 13 108.287 13.7205 110.88 15.1616C113.484 16.5902 115.485 18.6456 116.882 21.3277C118.279 24.0109 118.978 27.2197 118.978 30.9563C118.978 34.7053 118.273 37.9265 116.865 40.62C115.467 43.3145 113.449 45.3822 110.809 46.8222C108.18 48.2633 105.019 48.9838 101.325 48.9838ZM95.5888 43.3433H101.005C103.539 43.3433 105.652 42.8867 107.346 41.9734C109.039 41.0478 110.311 39.6717 111.164 37.8441C112.016 36.0051 112.442 33.7096 112.442 30.9563C112.442 28.2041 112.016 25.9199 111.164 24.1047C110.311 22.2771 109.05 20.9123 107.381 20.0104C105.724 19.0971 103.663 18.6394 101.201 18.6394H95.5888V43.3433ZM130.72 49.5281C128.991 49.5281 127.434 49.224 126.049 48.6148C124.676 47.9943 123.586 47.0799 122.781 45.8739C121.988 44.6669 121.592 43.1794 121.592 41.4106C121.592 39.8881 121.876 38.6295 122.444 37.6338C123.012 36.638 123.788 35.8412 124.77 35.2434C125.753 34.6466 126.86 34.1951 128.092 33.891C129.335 33.5745 130.619 33.3467 131.945 33.2055C133.544 33.0416 134.84 32.8953 135.835 32.7664C136.829 32.6262 137.551 32.4149 138.001 32.1335C138.463 31.8408 138.694 31.3903 138.694 30.7811V30.676C138.694 29.3524 138.297 28.3268 137.504 27.6011C136.711 26.8744 135.568 26.5116 134.076 26.5116C132.502 26.5116 131.253 26.8507 130.329 27.531C129.418 28.2103 128.802 29.0123 128.482 29.9379L122.479 29.0947C122.953 27.4548 123.735 26.0838 124.824 24.9829C125.913 23.8697 127.245 23.0388 128.82 22.4874C130.394 21.9256 132.135 21.6442 134.041 21.6442C135.355 21.6442 136.663 21.7967 137.966 22.1008C139.268 22.4059 140.458 22.91 141.535 23.612C142.613 24.3036 143.477 25.2468 144.128 26.4415C144.791 27.6362 145.123 29.1298 145.123 30.9213V48.9838H138.943V45.2761H138.729C138.339 46.0265 137.788 46.7285 137.078 47.3851C136.379 48.0293 135.497 48.5509 134.432 48.9488C133.378 49.3353 132.141 49.5281 130.72 49.5281ZM132.389 44.8545C133.68 44.8545 134.799 44.603 135.746 44.0989C136.693 43.5835 137.421 42.9042 137.93 42.061C138.451 41.2178 138.712 40.2984 138.712 39.3026V36.1227C138.51 36.2865 138.167 36.4391 137.682 36.5793C137.208 36.7195 136.675 36.8432 136.083 36.9483C135.491 37.0535 134.905 37.1473 134.325 37.2297C133.745 37.3112 133.242 37.3812 132.816 37.44C131.856 37.5688 130.998 37.7802 130.24 38.0729C129.483 38.3656 128.885 38.7759 128.447 39.3026C128.009 39.818 127.79 40.486 127.79 41.3055C127.79 42.4775 128.222 43.3609 129.086 43.9587C129.95 44.5566 131.051 44.8545 132.389 44.8545ZM152.523 59.1041C151.647 59.1041 150.835 59.034 150.09 58.8938C149.355 58.765 148.769 58.6124 148.331 58.4361L149.823 53.4822C150.758 53.7512 151.593 53.8801 152.327 53.8687C153.061 53.8563 153.707 53.6286 154.263 53.1833C154.831 52.7493 155.311 52.0236 155.702 51.0042L156.252 49.5456L146.36 21.9957H153.18L159.466 42.3775H159.751L166.055 21.9957H172.893L161.971 52.2514C161.462 53.6811 160.787 54.9047 159.946 55.9241C159.105 56.9549 158.075 57.7393 156.856 58.2784C155.648 58.8289 154.204 59.1041 152.523 59.1041ZM196.818 29.1298L190.957 29.7617C190.791 29.1762 190.501 28.6257 190.086 28.1103C189.684 27.5949 189.139 27.1795 188.453 26.8631C187.766 26.5466 186.925 26.3889 185.931 26.3889C184.594 26.3889 183.468 26.6755 182.557 27.2496C181.657 27.8238 181.213 28.567 181.225 29.4813C181.213 30.2657 181.503 30.9038 182.095 31.3965C182.698 31.8882 183.693 32.2922 185.079 32.6087L189.731 33.5921C192.313 34.1425 194.231 35.0156 195.485 36.2103C196.752 37.405 197.392 38.9687 197.404 40.9014C197.392 42.6001 196.889 44.0989 195.894 45.3998C194.911 46.6882 193.544 47.6953 191.792 48.422C190.04 49.1477 188.027 49.5105 185.753 49.5105C182.415 49.5105 179.727 48.8199 177.691 47.4376C175.654 46.044 174.441 44.1051 174.05 41.6219L180.319 41.0241C180.603 42.2425 181.207 43.1619 182.131 43.7835C183.054 44.404 184.256 44.7143 185.735 44.7143C187.263 44.7143 188.488 44.404 189.412 43.7835C190.347 43.1619 190.815 42.395 190.815 41.4817C190.815 40.7086 190.513 40.0695 189.909 39.5665C189.318 39.0625 188.393 38.6759 187.139 38.4069L182.486 37.44C179.869 36.9009 177.933 35.9938 176.678 34.7167C175.423 33.4282 174.802 31.8006 174.814 29.8317C174.802 28.1691 175.258 26.7281 176.181 25.5097C177.116 24.2799 178.413 23.3316 180.07 22.6636C181.74 21.9844 183.664 21.6442 185.842 21.6442C189.039 21.6442 191.554 22.3183 193.39 23.6656C195.238 25.0118 196.379 26.8332 196.818 29.1298ZM207.05 33.1705V48.9838H200.621V13H206.908V26.5817H207.228C207.867 25.0592 208.856 23.8583 210.194 22.9801C211.543 22.0895 213.26 21.6442 215.344 21.6442C217.238 21.6442 218.889 22.0369 220.299 22.8214C221.708 23.6068 222.796 24.7541 223.566 26.2652C224.348 27.7764 224.739 29.6215 224.739 31.8006V48.9838H218.309V32.7839C218.309 30.9687 217.836 29.5565 216.889 28.5494C215.953 27.53 214.64 27.0208 212.946 27.0208C211.81 27.0208 210.792 27.2671 209.892 27.7588C209.004 28.2392 208.305 28.936 207.796 29.8503C207.298 30.7636 207.05 31.8706 207.05 33.1705ZM241.285 49.5105C238.55 49.5105 236.188 48.9488 234.198 47.8242C232.221 46.6882 230.699 45.0833 229.634 43.0104C228.569 40.9251 228.036 38.4708 228.036 35.6475C228.036 32.8715 228.569 30.4358 229.634 28.3392C230.712 26.2302 232.215 24.5902 234.145 23.4192C236.075 22.2359 238.342 21.6442 240.947 21.6442C242.628 21.6442 244.215 21.9143 245.707 22.4523C247.21 22.9801 248.536 23.7996 249.684 24.9128C250.845 26.025 251.757 27.4424 252.419 29.1648C253.082 30.8749 253.414 32.9128 253.414 35.2795V37.2297H231.054V32.9427H247.252C247.239 31.7243 246.973 30.6409 246.453 29.6916C245.932 28.7309 245.203 27.9753 244.268 27.4249C243.345 26.8744 242.267 26.5992 241.036 26.5992C239.722 26.5992 238.568 26.9157 237.573 27.5486C236.579 28.1691 235.802 28.9886 235.246 30.008C234.701 31.0151 234.423 32.1222 234.411 33.3282V37.071C234.411 38.6409 234.701 39.9881 235.281 41.1127C235.862 42.2249 236.672 43.0805 237.714 43.6773C238.756 44.2628 239.976 44.5566 241.373 44.5566C242.309 44.5566 243.155 44.4277 243.912 44.17C244.671 43.9 245.327 43.5083 245.884 42.9929C246.44 42.4775 246.861 41.8384 247.145 41.0777L253.148 41.7446C252.768 43.3145 252.046 44.6854 250.981 45.8564C249.927 47.016 248.578 47.918 246.932 48.5622C245.286 49.1951 243.404 49.5105 241.285 49.5105ZM268.846 49.5105C266.111 49.5105 263.749 48.9488 261.76 47.8242C259.782 46.6882 258.261 45.0833 257.195 43.0104C256.13 40.9251 255.597 38.4708 255.597 35.6475C255.597 32.8715 256.13 30.4358 257.195 28.3392C258.273 26.2302 259.776 24.5902 261.706 23.4192C263.636 22.2359 265.904 21.6442 268.508 21.6442C270.189 21.6442 271.776 21.9143 273.268 22.4523C274.771 22.9801 276.097 23.7996 277.245 24.9128C278.406 26.025 279.318 27.4424 279.98 29.1648C280.644 30.8749 280.975 32.9128 280.975 35.2795V37.2297H258.616V32.9427H274.813C274.801 31.7243 274.535 30.6409 274.014 29.6916C273.493 28.7309 272.764 27.9753 271.829 27.4249C270.906 26.8744 269.828 26.5992 268.597 26.5992C267.283 26.5992 266.129 26.9157 265.134 27.5486C264.14 28.1691 263.363 28.9886 262.807 30.008C262.262 31.0151 261.984 32.1222 261.972 33.3282V37.071C261.972 38.6409 262.262 39.9881 262.842 41.1127C263.423 42.2249 264.234 43.0805 265.276 43.6773C266.318 44.2628 267.537 44.5566 268.934 44.5566C269.87 44.5566 270.716 44.4277 271.473 44.17C272.232 43.9 272.888 43.5083 273.445 42.9929C274.002 42.4775 274.422 41.8384 274.706 41.0777L280.709 41.7446C280.329 43.3145 279.607 44.6854 278.542 45.8564C277.488 47.016 276.139 47.918 274.493 48.5622C272.848 49.1951 270.965 49.5105 268.846 49.5105ZM297.952 21.9957V26.9157H282.271V21.9957H297.952ZM286.142 15.5296H292.571V40.8663C292.571 41.7219 292.701 42.3775 292.961 42.8341C293.233 43.2794 293.589 43.5835 294.027 43.7474C294.465 43.9123 294.95 43.9938 295.483 43.9938C295.886 43.9938 296.253 43.9649 296.584 43.9061C296.928 43.8474 297.188 43.7948 297.365 43.7474L298.449 48.7199C298.105 48.8374 297.614 48.9663 296.975 49.1065C296.347 49.2477 295.578 49.3291 294.666 49.3528C293.056 49.3992 291.606 49.159 290.315 48.6323C289.025 48.0932 288.001 47.2624 287.242 46.1378C286.496 45.0132 286.13 43.6072 286.142 41.9208V15.5296ZM322.413 29.1298L316.553 29.7617C316.387 29.1762 316.097 28.6257 315.683 28.1103C315.281 27.5949 314.736 27.1795 314.049 26.8631C313.363 26.5466 312.522 26.3889 311.528 26.3889C310.189 26.3889 309.065 26.6755 308.153 27.2496C307.253 27.8238 306.809 28.567 306.822 29.4813C306.809 30.2657 307.1 30.9038 307.692 31.3965C308.295 31.8882 309.29 32.2922 310.674 32.6087L315.328 33.5921C317.909 34.1425 319.826 35.0156 321.082 36.2103C322.349 37.405 322.989 38.9687 323 40.9014C322.989 42.6001 322.485 44.0989 321.49 45.3998C320.508 46.6882 319.14 47.6953 317.388 48.422C315.636 49.1477 313.623 49.5105 311.35 49.5105C308.011 49.5105 305.323 48.8199 303.286 47.4376C301.251 46.044 300.037 44.1051 299.646 41.6219L305.915 41.0241C306.2 42.2425 306.803 43.1619 307.727 43.7835C308.65 44.404 309.852 44.7143 311.332 44.7143C312.859 44.7143 314.085 44.404 315.008 43.7835C315.943 43.1619 316.411 42.395 316.411 41.4817C316.411 40.7086 316.109 40.0695 315.506 39.5665C314.914 39.0625 313.99 38.6759 312.735 38.4069L308.082 37.44C305.465 36.9009 303.529 35.9938 302.275 34.7167C301.019 33.4282 300.398 31.8006 300.41 29.8317C300.398 28.1691 300.854 26.7281 301.778 25.5097C302.712 24.2799 304.01 23.3316 305.667 22.6636C307.336 21.9844 309.26 21.6442 311.438 21.6442C314.636 21.6442 317.151 22.3183 318.987 23.6656C320.833 25.0118 321.976 26.8332 322.413 29.1298Z" fill="#010119"/>
<circle cx="34" cy="34" r="34" fill="#1331DD"/>
<circle cx="33.9998" cy="34.0001" r="30.4675" fill="#3433FA"/>
<path fill-rule="evenodd" clip-rule="evenodd" d="M34.4157 15.4662C45.0443 15.4662 53.6608 23.9671 53.6608 34.453L53.6582 34.7672C53.4882 45.1086 44.9379 53.4402 34.4157 53.4402H21.7795C21.423 53.4402 21.1339 53.1548 21.1339 52.8031V47.7646H24.4764V50.1422H34.1743C42.9011 50.1422 50.1831 43.3054 50.3163 34.6968C50.4516 25.9347 43.2665 18.7641 34.4157 18.7641H24.4764V23.4354H27.2391C27.5961 23.4354 27.885 23.7208 27.885 24.0725V26.0964C27.885 26.448 27.5961 26.7334 27.2391 26.7334H18.5403C18.1836 26.7334 17.8946 26.448 17.8946 26.0964V24.0725C17.8946 23.7208 18.1836 23.4354 18.5403 23.4354H21.1339V16.1034C21.1339 15.7515 21.423 15.4662 21.7795 15.4662H34.4157ZM24.42 38.211V41.5144H27.159C27.5126 41.5144 27.7991 41.7932 27.7991 42.1372V44.115C27.7991 44.4589 27.5126 44.7378 27.159 44.7378H18.5347C18.181 44.7378 17.8945 44.4589 17.8945 44.115V42.1372C17.8945 41.7932 18.181 41.5144 18.5347 41.5144H21.1059V38.211H24.42ZM24.42 28.9648V32.2655H27.159C27.5126 32.2655 27.7991 32.5445 27.7991 32.8888V34.8684C27.7991 35.2125 27.5126 35.4916 27.159 35.4916H18.5347C18.181 35.4916 17.8945 35.2125 17.8945 34.8684V32.8888C17.8945 32.5445 18.181 32.2655 18.5347 32.2655H21.1059V28.9648H24.42ZM43.111 27.877C43.4676 27.877 43.7565 28.1594 43.7565 28.5076V30.51C43.7565 30.8581 43.4676 31.1404 43.111 31.1404H32.2964C31.94 31.1404 31.6509 30.8581 31.6509 30.51V28.5076C31.6509 28.1594 31.94 27.877 32.2964 27.877H43.111Z" fill="white"/>
</svg>
