<svg width="770" height="163" viewBox="0 0 770 163" fill="none" xmlns="http://www.w3.org/2000/svg">
<path d="M241.549 125.305H212.167V39.5233H242.141C250.75 39.5233 258.145 41.2409 264.326 44.6762C270.535 48.082 275.305 52.9819 278.636 59.3758C281.966 65.7721 283.631 73.4217 283.631 82.3294C283.631 91.2666 281.952 98.9456 278.593 105.367C275.263 111.79 270.451 116.719 264.156 120.152C257.891 123.587 250.355 125.305 241.549 125.305ZM227.874 111.859H240.787C246.827 111.859 251.865 110.77 255.901 108.593C259.937 106.386 262.971 103.106 265.003 98.749C267.035 94.3652 268.052 88.8928 268.052 82.3294C268.052 75.7684 267.035 70.323 265.003 65.9957C262.971 61.6389 259.965 58.3855 255.986 56.2353C252.034 54.0582 247.123 52.9671 241.252 52.9671H227.874V111.859ZM311.623 126.603C307.502 126.603 303.791 125.878 300.489 124.425C297.215 122.946 294.618 120.766 292.699 117.891C290.808 115.014 289.862 111.468 289.862 107.251C289.862 103.622 290.539 100.622 291.894 98.2478C293.249 95.874 295.098 93.9745 297.44 92.5493C299.783 91.1265 302.422 90.0502 305.357 89.3253C308.321 88.5709 311.383 88.0278 314.544 87.6912C318.355 87.3005 321.445 86.9516 323.816 86.6444C326.187 86.3102 327.909 85.8065 328.981 85.1356C330.082 84.4378 330.632 83.3639 330.632 81.9117V81.661C330.632 78.5058 329.687 76.0608 327.796 74.3309C325.905 72.5985 323.181 71.7335 319.625 71.7335C315.871 71.7335 312.893 72.542 310.692 74.1638C308.518 75.7832 307.051 77.6949 306.289 79.9016L291.979 77.8915C293.108 73.982 294.971 70.7137 297.567 68.0894C300.164 65.4355 303.339 63.4549 307.093 62.1402C310.847 60.801 314.996 60.1302 319.54 60.1302C322.673 60.1302 325.792 60.4938 328.897 61.2187C332.001 61.9461 334.838 63.1477 337.406 64.8211C339.975 66.47 342.035 68.7184 343.588 71.5664C345.168 74.4144 345.958 77.9751 345.958 82.2459V125.305H331.225V116.466H330.717C329.786 118.255 328.473 119.929 326.78 121.494C325.115 123.03 323.012 124.273 320.471 125.222C317.96 126.143 315.01 126.603 311.623 126.603ZM315.603 115.461C318.679 115.461 321.346 114.862 323.604 113.66C325.862 112.431 327.598 110.812 328.812 108.802C330.054 106.792 330.675 104.6 330.675 102.226V94.6454C330.195 95.0361 329.376 95.3998 328.219 95.734C327.09 96.0682 325.82 96.363 324.409 96.6137C322.998 96.8643 321.601 97.0879 320.218 97.2845C318.834 97.4786 317.635 97.6457 316.619 97.7858C314.333 98.0929 312.286 98.5967 310.48 99.2946C308.674 99.9924 307.248 100.97 306.204 102.226C305.16 103.455 304.637 105.047 304.637 107.001C304.637 109.795 305.668 111.901 307.728 113.326C309.789 114.751 312.413 115.461 315.603 115.461ZM363.599 149.431C361.51 149.431 359.577 149.264 357.798 148.93C356.049 148.622 354.651 148.259 353.607 147.839L357.163 136.029C359.393 136.67 361.383 136.977 363.133 136.95C364.883 136.921 366.421 136.378 367.747 135.316C369.102 134.282 370.245 132.552 371.177 130.121L372.489 126.644L348.908 60.9681H365.165L380.152 109.556H380.83L395.859 60.9681H412.159L386.122 133.095C384.908 136.503 383.299 139.42 381.295 141.85C379.292 144.307 376.836 146.177 373.929 147.463C371.05 148.775 367.606 149.431 363.599 149.431ZM469.195 77.9751L455.223 79.4814C454.826 78.0856 454.136 76.7734 453.147 75.5448C452.188 74.3161 450.889 73.3258 449.252 72.5714C447.616 71.817 445.611 71.4411 443.242 71.4411C440.053 71.4411 437.37 72.1242 435.197 73.4929C433.052 74.8616 431.994 76.6334 432.022 78.813C431.994 80.683 432.685 82.2041 434.096 83.3787C435.535 84.5508 437.907 85.514 441.21 86.2684L452.3 88.6127C458.455 89.9249 463.027 92.0062 466.018 94.8542C469.038 97.7023 470.563 101.43 470.59 106.037C470.563 110.087 469.363 113.66 466.991 116.761C464.649 119.833 461.391 122.233 457.213 123.966C453.035 125.696 448.237 126.561 442.817 126.561C434.859 126.561 428.451 124.914 423.597 121.619C418.742 118.297 415.849 113.675 414.918 107.755L429.863 106.33C430.54 109.234 431.979 111.426 434.181 112.908C436.382 114.387 439.248 115.127 442.775 115.127C446.416 115.127 449.337 114.387 451.54 112.908C453.768 111.426 454.883 109.598 454.883 107.421C454.883 105.578 454.163 104.054 452.725 102.855C451.314 101.654 449.111 100.732 446.12 100.091L435.028 97.7858C428.79 96.5006 424.175 94.3382 421.184 91.2936C418.192 88.222 416.71 84.3419 416.738 79.6485C416.71 75.6848 417.797 72.2496 419.998 69.345C422.228 66.4135 425.318 64.1528 429.27 62.5604C433.25 60.9411 437.837 60.1302 443.028 60.1302C450.651 60.1302 456.647 61.7372 461.023 64.9489C465.427 68.1582 468.149 72.5002 469.195 77.9751ZM493.588 87.6077V125.305H478.26V39.5233H493.247V71.9006H494.01C495.535 68.2712 497.892 65.4084 501.081 63.3148C504.297 61.1917 508.391 60.1302 513.358 60.1302C517.874 60.1302 521.81 61.0664 525.171 62.9364C528.529 64.8089 531.125 67.5438 532.96 71.1462C534.823 74.7486 535.754 79.1472 535.754 84.3419V125.305H520.427V86.6862C520.427 82.3589 519.299 78.9924 517.042 76.5916C514.811 74.1613 511.679 72.9474 507.643 72.9474C504.933 72.9474 502.507 73.5347 500.361 74.7068C498.245 75.8519 496.578 77.5131 495.366 79.6927C494.179 81.8699 493.588 84.509 493.588 87.6077ZM575.199 126.561C568.679 126.561 563.048 125.222 558.304 122.541C553.593 119.833 549.964 116.007 547.425 111.065C544.885 106.094 543.615 100.243 543.615 93.5125C543.615 86.895 544.885 81.0885 547.425 76.0903C549.994 71.0627 553.578 67.1531 558.178 64.3616C562.78 61.5407 568.185 60.1302 574.394 60.1302C578.4 60.1302 582.183 60.774 585.74 62.0567C589.324 63.3148 592.486 65.2684 595.223 67.9222C597.99 70.5737 600.163 73.9524 601.743 78.0586C603.322 82.1353 604.115 86.9933 604.115 92.6353V97.2845H550.811V87.0646H589.423C589.393 84.1601 588.76 81.5774 587.518 79.3143C586.276 77.0241 584.54 75.2229 582.31 73.9107C580.109 72.5985 577.541 71.9424 574.605 71.9424C571.473 71.9424 568.721 72.6968 566.349 74.2056C563.98 75.6849 562.129 77.6384 560.803 80.0687C559.504 82.4695 558.841 85.1086 558.813 87.9836V96.9061C558.813 100.649 559.504 103.86 560.887 106.541C562.271 109.193 564.203 111.232 566.687 112.655C569.171 114.051 572.079 114.751 575.41 114.751C577.64 114.751 579.657 114.444 581.463 113.83C583.271 113.186 584.836 112.252 586.162 111.023C587.488 109.795 588.492 108.271 589.17 106.458L603.479 108.047C602.575 111.79 600.853 115.058 598.313 117.85C595.802 120.614 592.585 122.764 588.661 124.3C584.736 125.809 580.251 126.561 575.199 126.561ZM640.902 126.561C634.382 126.561 628.751 125.222 624.01 122.541C619.295 119.833 615.669 116.007 613.128 111.065C610.587 106.094 609.318 100.243 609.318 93.5125C609.318 86.895 610.587 81.0885 613.128 76.0903C615.696 71.0627 619.28 67.1531 623.88 64.3616C628.483 61.5407 633.887 60.1302 640.097 60.1302C644.103 60.1302 647.886 60.774 651.443 62.0567C655.027 63.3148 658.189 65.2684 660.926 67.9222C663.693 70.5737 665.866 73.9524 667.445 78.0586C669.028 82.1353 669.817 86.9933 669.817 92.6353V97.2845H616.514V87.0646H655.126C655.099 84.1601 654.463 81.5774 653.221 79.3143C651.979 77.0241 650.243 75.2229 648.013 73.9107C645.812 72.5985 643.244 71.9424 640.308 71.9424C637.176 71.9424 634.424 72.6968 632.052 74.2056C629.682 75.6849 627.832 77.6384 626.506 80.0687C625.207 82.4695 624.544 85.1086 624.516 87.9836V96.9061C624.516 100.649 625.207 103.86 626.59 106.541C627.974 109.193 629.908 111.232 632.392 112.655C634.876 114.051 637.782 114.751 641.113 114.751C643.343 114.751 645.36 114.444 647.166 113.83C648.974 113.186 650.539 112.252 651.865 111.023C653.194 109.795 654.195 108.271 654.873 106.458L669.182 108.047C668.278 111.79 666.556 115.058 664.015 117.85C661.504 120.614 658.288 122.764 654.364 124.3C650.442 125.809 645.954 126.561 640.902 126.561ZM710.288 60.9681V72.6968H672.905V60.9681H710.288ZM682.134 45.5535H697.459V105.954C697.459 107.993 697.77 109.556 698.391 110.645C699.039 111.706 699.886 112.431 700.932 112.822C701.975 113.215 703.132 113.409 704.401 113.409C705.362 113.409 706.237 113.341 707.027 113.2C707.846 113.06 708.467 112.935 708.889 112.822L711.473 124.676C710.653 124.956 709.483 125.263 707.958 125.598C706.463 125.934 704.627 126.128 702.454 126.185C698.617 126.295 695.159 125.723 692.082 124.467C689.007 123.182 686.565 121.201 684.757 118.52C682.979 115.84 682.105 112.488 682.134 108.468V45.5535ZM768.601 77.9751L754.63 79.4814C754.235 78.0856 753.545 76.7734 752.556 75.5448C751.598 74.3161 750.299 73.3258 748.662 72.5714C747.025 71.817 745.021 71.4411 742.651 71.4411C739.46 71.4411 736.78 72.1242 734.606 73.4929C732.46 74.8616 731.402 76.6334 731.432 78.813C731.402 80.683 732.095 82.2041 733.506 83.3787C734.944 84.5508 737.316 85.514 740.617 86.2684L751.709 88.6127C757.864 89.9249 762.434 92.0062 765.427 94.8542C768.447 97.7023 769.972 101.43 770 106.037C769.972 110.087 768.773 113.66 766.401 116.761C764.059 119.833 760.797 122.233 756.622 123.966C752.445 125.696 747.646 126.561 742.226 126.561C734.268 126.561 727.86 124.914 723.005 121.619C718.151 118.297 715.258 113.675 714.326 107.755L729.271 106.33C729.949 109.234 731.387 111.426 733.59 112.908C735.791 114.387 738.657 115.127 742.184 115.127C745.825 115.127 748.746 114.387 750.947 112.908C753.177 111.426 754.293 109.598 754.293 107.421C754.293 105.578 753.572 104.054 752.134 102.855C750.723 101.654 748.52 100.732 745.53 100.091L734.437 97.7858C728.198 96.5006 723.583 94.3382 720.593 91.2936C717.6 88.222 716.12 84.3419 716.147 79.6485C716.12 75.6848 717.205 72.2496 719.408 69.345C721.636 66.4135 724.728 64.1528 728.68 62.5604C732.659 60.9411 737.244 60.1302 742.438 60.1302C750.06 60.1302 756.056 61.7372 760.432 64.9489C764.834 68.1582 767.558 72.5002 768.601 77.9751Z" fill="white"/>
<circle cx="81.0526" cy="81.3529" r="81.0526" fill="#1331DD"/>
<circle cx="81.0525" cy="81.3531" r="72.6316" fill="#3433FA"/>
<path fill-rule="evenodd" clip-rule="evenodd" d="M82.044 37.1702C107.382 37.1702 127.922 57.4355 127.922 82.433L127.916 83.182C127.511 107.835 107.128 127.697 82.044 127.697H51.9206C51.0708 127.697 50.3814 127.016 50.3814 126.178V114.166H58.3496V119.834H81.4687C102.272 119.834 119.632 103.536 119.949 83.0141C120.272 62.1262 103.143 45.0322 82.044 45.0322H58.3496V56.1682H64.9357C65.7867 56.1682 66.4755 56.8483 66.4755 57.6867V62.5116C66.4755 63.3498 65.7867 64.0301 64.9357 64.0301H44.1986C43.3482 64.0301 42.6594 63.3498 42.6594 62.5116V57.6867C42.6594 56.8483 43.3482 56.1682 44.1986 56.1682H50.3814V38.6894C50.3814 37.8504 51.0708 37.1702 51.9206 37.1702H82.044ZM58.2152 91.3917V99.2665H64.7447C65.5878 99.2665 66.2707 99.9312 66.2707 100.751V105.466C66.2707 106.286 65.5878 106.951 64.7447 106.951H44.1852C43.3421 106.951 42.6592 106.286 42.6592 105.466V100.751C42.6592 99.9312 43.3421 99.2665 44.1852 99.2665H50.3149V91.3917H58.2152ZM58.2152 69.3496V77.218H64.7447C65.5878 77.218 66.2707 77.8833 66.2707 78.7041V83.4233C66.2707 84.2434 65.5878 84.9089 64.7447 84.9089H44.1852C43.3421 84.9089 42.6592 84.2434 42.6592 83.4233V78.7041C42.6592 77.8833 43.3421 77.218 44.1852 77.218H50.3149V69.3496H58.2152ZM102.773 66.7564C103.623 66.7564 104.312 67.4296 104.312 68.2596V73.0332C104.312 73.863 103.623 74.5359 102.773 74.5359H76.9919C76.1422 74.5359 75.453 73.863 75.453 73.0332V68.2596C75.453 67.4296 76.1422 66.7564 76.9919 66.7564H102.773Z" fill="white"/>
</svg>
