<svg width="770" height="163" viewBox="0 0 770 163" fill="none" xmlns="http://www.w3.org/2000/svg">
<path d="M241.549 129.773H212.167V43.9907H242.141C250.75 43.9907 258.145 45.7084 264.326 49.1437C270.535 52.5495 275.305 57.4493 278.636 63.8432C281.966 70.2396 283.631 77.8892 283.631 86.7969C283.631 95.7341 281.952 103.413 278.593 109.834C275.263 116.257 270.451 121.187 264.156 124.62C257.891 128.055 250.355 129.773 241.549 129.773ZM227.874 116.326H240.787C246.827 116.326 251.865 115.238 255.901 113.06C259.937 110.854 262.971 107.573 265.003 103.217C267.035 98.8327 268.052 93.3603 268.052 86.7969C268.052 80.2359 267.035 74.7905 265.003 70.4632C262.971 66.1064 259.965 62.8529 255.986 60.7028C252.034 58.5256 247.123 57.4346 241.252 57.4346H227.874V116.326ZM311.623 131.07C307.502 131.07 303.791 130.345 300.489 128.893C297.215 127.414 294.618 125.234 292.699 122.359C290.808 119.481 289.862 115.936 289.862 111.719C289.862 108.089 290.539 105.089 291.894 102.715C293.249 100.341 295.098 98.442 297.44 97.0168C299.783 95.594 302.422 94.5177 305.357 93.7928C308.321 93.0384 311.383 92.4953 314.544 92.1587C318.355 91.768 321.445 91.419 323.816 91.1119C326.187 90.7777 327.909 90.2739 328.981 89.6031C330.082 88.9052 330.632 87.8314 330.632 86.3791V86.1285C330.632 82.9733 329.687 80.5283 327.796 78.7983C325.905 77.0659 323.181 76.201 319.625 76.201C315.871 76.201 312.893 77.0094 310.692 78.6313C308.518 80.2506 307.051 82.1624 306.289 84.369L291.979 82.359C293.108 78.4494 294.971 75.1812 297.567 72.5568C300.164 69.9029 303.339 67.9223 307.093 66.6077C310.847 65.2685 314.996 64.5976 319.54 64.5976C322.673 64.5976 325.792 64.9613 328.897 65.6862C332.001 66.4136 334.838 67.6152 337.406 69.2886C339.975 70.9375 342.035 73.1859 343.588 76.0339C345.168 78.8819 345.958 82.4425 345.958 86.7133V129.773H331.225V120.934H330.717C329.786 122.723 328.473 124.396 326.78 125.961C325.115 127.497 323.012 128.74 320.471 129.689C317.96 130.611 315.01 131.07 311.623 131.07ZM315.603 119.929C318.679 119.929 321.346 119.329 323.604 118.127C325.862 116.899 327.598 115.279 328.812 113.269C330.054 111.259 330.675 109.067 330.675 106.694V99.1128C330.195 99.5035 329.376 99.8672 328.219 100.201C327.09 100.536 325.82 100.831 324.409 101.081C322.998 101.332 321.601 101.555 320.218 101.752C318.834 101.946 317.635 102.113 316.619 102.253C314.333 102.56 312.286 103.064 310.48 103.762C308.674 104.46 307.248 105.438 306.204 106.694C305.16 107.922 304.637 109.515 304.637 111.468C304.637 114.262 305.668 116.368 307.728 117.793C309.789 119.218 312.413 119.929 315.603 119.929ZM363.599 153.898C361.51 153.898 359.577 153.731 357.798 153.397C356.049 153.09 354.651 152.726 353.607 152.306L357.163 140.496C359.393 141.138 361.383 141.445 363.133 141.418C364.883 141.388 366.421 140.845 367.747 139.784C369.102 138.749 370.245 137.019 371.177 134.589L372.489 131.112L348.908 65.4355H365.165L380.152 114.024H380.83L395.859 65.4355H412.159L386.122 137.562C384.908 140.97 383.299 143.887 381.295 146.318C379.292 148.775 376.836 150.645 373.929 151.93C371.05 153.242 367.606 153.898 363.599 153.898ZM469.195 82.4425L455.223 83.9489C454.826 82.5531 454.136 81.2409 453.147 80.0123C452.188 78.7836 450.889 77.7933 449.252 77.0389C447.616 76.2845 445.611 75.9086 443.242 75.9086C440.053 75.9086 437.37 76.5917 435.197 77.9604C433.052 79.3291 431.994 81.1008 432.022 83.2805C431.994 85.1505 432.685 86.6715 434.096 87.8461C435.535 89.0183 437.907 89.9815 441.21 90.7359L452.3 93.0802C458.455 94.3924 463.027 96.4737 466.018 99.3217C469.038 102.17 470.563 105.897 470.59 110.505C470.563 114.554 469.363 118.127 466.991 121.229C464.649 124.3 461.391 126.701 457.213 128.433C453.035 130.163 448.237 131.028 442.817 131.028C434.859 131.028 428.451 129.382 423.597 126.087C418.742 122.764 415.849 118.142 414.918 112.223L429.863 110.797C430.54 113.702 431.979 115.894 434.181 117.375C436.382 118.855 439.248 119.594 442.775 119.594C446.416 119.594 449.337 118.855 451.54 117.375C453.768 115.894 454.883 114.066 454.883 111.888C454.883 110.045 454.163 108.522 452.725 107.323C451.314 106.121 449.111 105.2 446.12 104.558L435.028 102.253C428.79 100.968 424.175 98.8057 421.184 95.7611C418.192 92.6895 416.71 88.8094 416.738 84.1159C416.71 80.1523 417.797 76.717 419.998 73.8125C422.228 70.8809 425.318 68.6202 429.27 67.0279C433.25 65.4085 437.837 64.5976 443.028 64.5976C450.651 64.5976 456.647 66.2047 461.023 69.4164C465.427 72.6256 468.149 76.9677 469.195 82.4425ZM493.588 92.0751V129.773H478.26V43.9907H493.247V76.3681H494.01C495.535 72.7386 497.892 69.8759 501.081 67.7823C504.297 65.6592 508.391 64.5976 513.358 64.5976C517.874 64.5976 521.81 65.5339 525.171 67.4039C528.529 69.2763 531.125 72.0113 532.96 75.6137C534.823 79.2161 535.754 83.6147 535.754 88.8094V129.773H520.427V91.1536C520.427 86.8263 519.299 83.4598 517.042 81.0591C514.811 78.6288 511.679 77.4149 507.643 77.4149C504.933 77.4149 502.507 78.0022 500.361 79.1743C498.245 80.3194 496.578 81.9806 495.366 84.1602C494.179 86.3374 493.588 88.9765 493.588 92.0751ZM575.199 131.028C568.679 131.028 563.048 129.689 558.304 127.008C553.593 124.3 549.964 120.474 547.425 115.533C544.885 110.561 543.615 104.711 543.615 97.98C543.615 91.3625 544.885 85.5559 547.425 80.5578C549.994 75.5301 553.578 71.6206 558.178 68.8291C562.78 66.0081 568.185 64.5976 574.394 64.5976C578.4 64.5976 582.183 65.2414 585.74 66.5241C589.324 67.7823 592.486 69.7358 595.223 72.3897C597.99 75.0411 600.163 78.4199 601.743 82.5261C603.322 86.6027 604.115 91.4608 604.115 97.1028V101.752H550.811V91.5321H589.423C589.393 88.6276 588.76 86.0449 587.518 83.7817C586.276 81.4915 584.54 79.6904 582.31 78.3782C580.109 77.066 577.541 76.4098 574.605 76.4098C571.473 76.4098 568.721 77.1643 566.349 78.673C563.98 80.1523 562.129 82.1059 560.803 84.5362C559.504 86.9369 558.841 89.5761 558.813 92.4511V101.374C558.813 105.116 559.504 108.328 560.887 111.009C562.271 113.66 564.203 115.7 566.687 117.122C569.171 118.518 572.079 119.218 575.41 119.218C577.64 119.218 579.657 118.911 581.463 118.297C583.271 117.653 584.836 116.719 586.162 115.491C587.488 114.262 588.492 112.739 589.17 110.925L603.479 112.515C602.575 116.257 600.853 119.526 598.313 122.317C595.802 125.082 592.585 127.232 588.661 128.768C584.736 130.276 580.251 131.028 575.199 131.028ZM640.902 131.028C634.382 131.028 628.751 129.689 624.01 127.008C619.295 124.3 615.669 120.474 613.128 115.533C610.587 110.561 609.318 104.711 609.318 97.98C609.318 91.3625 610.587 85.5559 613.128 80.5578C615.696 75.5301 619.28 71.6206 623.88 68.8291C628.483 66.0081 633.887 64.5976 640.097 64.5976C644.103 64.5976 647.886 65.2414 651.443 66.5241C655.027 67.7823 658.189 69.7358 660.926 72.3897C663.693 75.0411 665.866 78.4199 667.445 82.5261C669.028 86.6027 669.817 91.4608 669.817 97.1028V101.752H616.514V91.5321H655.126C655.099 88.6276 654.463 86.0449 653.221 83.7817C651.979 81.4915 650.243 79.6904 648.013 78.3782C645.812 77.066 643.244 76.4098 640.308 76.4098C637.176 76.4098 634.424 77.1643 632.052 78.673C629.682 80.1523 627.832 82.1059 626.506 84.5362C625.207 86.9369 624.544 89.5761 624.516 92.4511V101.374C624.516 105.116 625.207 108.328 626.59 111.009C627.974 113.66 629.908 115.7 632.392 117.122C634.876 118.518 637.782 119.218 641.113 119.218C643.343 119.218 645.36 118.911 647.166 118.297C648.974 117.653 650.539 116.719 651.865 115.491C653.194 114.262 654.195 112.739 654.873 110.925L669.182 112.515C668.278 116.257 666.556 119.526 664.015 122.317C661.504 125.082 658.288 127.232 654.364 128.768C650.442 130.276 645.954 131.028 640.902 131.028ZM710.288 65.4355V77.1643H672.905V65.4355H710.288ZM682.134 50.0209H697.459V110.421C697.459 112.461 697.77 114.024 698.391 115.112C699.039 116.174 699.886 116.899 700.932 117.289C701.975 117.683 703.132 117.877 704.401 117.877C705.362 117.877 706.237 117.808 707.027 117.668C707.846 117.528 708.467 117.403 708.889 117.289L711.473 129.143C710.653 129.424 709.483 129.731 707.958 130.065C706.463 130.402 704.627 130.596 702.454 130.652C698.617 130.763 695.159 130.19 692.082 128.935C689.007 127.649 686.565 125.669 684.757 122.988C682.979 120.307 682.105 116.955 682.134 112.935V50.0209ZM768.601 82.4425L754.63 83.9489C754.235 82.5531 753.545 81.2409 752.556 80.0123C751.598 78.7836 750.299 77.7933 748.662 77.0389C747.025 76.2845 745.021 75.9086 742.651 75.9086C739.46 75.9086 736.78 76.5917 734.606 77.9604C732.46 79.3291 731.402 81.1008 731.432 83.2805C731.402 85.1505 732.095 86.6715 733.506 87.8461C734.944 89.0183 737.316 89.9815 740.617 90.7359L751.709 93.0802C757.864 94.3924 762.434 96.4737 765.427 99.3217C768.447 102.17 769.972 105.897 770 110.505C769.972 114.554 768.773 118.127 766.401 121.229C764.059 124.3 760.797 126.701 756.622 128.433C752.445 130.163 747.646 131.028 742.226 131.028C734.268 131.028 727.86 129.382 723.005 126.087C718.151 122.764 715.258 118.142 714.326 112.223L729.271 110.797C729.949 113.702 731.387 115.894 733.59 117.375C735.791 118.855 738.657 119.594 742.184 119.594C745.825 119.594 748.746 118.855 750.947 117.375C753.177 115.894 754.293 114.066 754.293 111.888C754.293 110.045 753.572 108.522 752.134 107.323C750.723 106.121 748.52 105.2 745.53 104.558L734.437 102.253C728.198 100.968 723.583 98.8057 720.593 95.7611C717.6 92.6895 716.12 88.8094 716.147 84.1159C716.12 80.1523 717.205 76.717 719.408 73.8125C721.636 70.8809 724.728 68.6202 728.68 67.0279C732.659 65.4085 737.244 64.5976 742.438 64.5976C750.06 64.5976 756.056 66.2047 760.432 69.4164C764.834 72.6256 767.558 76.9677 768.601 82.4425Z" fill="#010119"/>
<circle cx="81.0526" cy="81.0526" r="81.0526" fill="#1331DD"/>
<circle cx="81.0525" cy="81.0528" r="72.6316" fill="#3433FA"/>
<path fill-rule="evenodd" clip-rule="evenodd" d="M82.044 36.8699C107.382 36.8699 127.922 57.1351 127.922 82.1326L127.916 82.8817C127.511 107.535 107.128 127.396 82.044 127.396H51.9206C51.0708 127.396 50.3814 126.716 50.3814 125.877V113.866H58.3496V119.534H81.4687C102.272 119.534 119.632 103.236 119.949 82.7138C120.272 61.8258 103.143 44.7318 82.044 44.7318H58.3496V55.8678H64.9357C65.7867 55.8678 66.4755 56.5479 66.4755 57.3864V62.2112C66.4755 63.0494 65.7867 63.7298 64.9357 63.7298H44.1986C43.3482 63.7298 42.6594 63.0494 42.6594 62.2112V57.3864C42.6594 56.5479 43.3482 55.8678 44.1986 55.8678H50.3814V38.389C50.3814 37.55 51.0708 36.8699 51.9206 36.8699H82.044ZM58.2152 91.0913V98.9661H64.7447C65.5878 98.9661 66.2707 99.6308 66.2707 100.451V105.166C66.2707 105.986 65.5878 106.651 64.7447 106.651H44.1852C43.3421 106.651 42.6592 105.986 42.6592 105.166V100.451C42.6592 99.6308 43.3421 98.9661 44.1852 98.9661H50.3149V91.0913H58.2152ZM58.2152 69.0492V76.9177H64.7447C65.5878 76.9177 66.2707 77.5829 66.2707 78.4038V83.1229C66.2707 83.943 65.5878 84.6085 64.7447 84.6085H44.1852C43.3421 84.6085 42.6592 83.943 42.6592 83.1229V78.4038C42.6592 77.5829 43.3421 76.9177 44.1852 76.9177H50.3149V69.0492H58.2152ZM102.773 66.4561C103.623 66.4561 104.312 67.1292 104.312 67.9593V72.7329C104.312 73.5627 103.623 74.2356 102.773 74.2356H76.9919C76.1422 74.2356 75.453 73.5627 75.453 72.7329V67.9593C75.453 67.1292 76.1422 66.4561 76.9919 66.4561H102.773Z" fill="white"/>
</svg>
