<svg width="323" height="68" viewBox="0 0 323 68" fill="none" xmlns="http://www.w3.org/2000/svg">
<path d="M101.325 46.9838H89V11H101.574C105.185 11 108.287 11.7205 110.88 13.1616C113.484 14.5902 115.485 16.6456 116.882 19.3277C118.279 22.0109 118.978 25.2197 118.978 28.9563C118.978 32.7053 118.273 35.9265 116.865 38.62C115.467 41.3145 113.449 43.3822 110.809 44.8222C108.18 46.2633 105.019 46.9838 101.325 46.9838ZM95.5888 41.3433H101.005C103.539 41.3433 105.652 40.8867 107.346 39.9734C109.039 39.0478 110.311 37.6717 111.164 35.8441C112.016 34.0051 112.442 31.7096 112.442 28.9563C112.442 26.2041 112.016 23.9199 111.164 22.1047C110.311 20.2771 109.05 18.9123 107.381 18.0104C105.724 17.0971 103.663 16.6394 101.201 16.6394H95.5888V41.3433ZM130.72 47.5281C128.991 47.5281 127.434 47.224 126.049 46.6148C124.676 45.9943 123.586 45.0799 122.781 43.8739C121.988 42.6669 121.592 41.1794 121.592 39.4106C121.592 37.8881 121.876 36.6295 122.444 35.6338C123.012 34.638 123.788 33.8412 124.77 33.2434C125.753 32.6466 126.86 32.1951 128.092 31.891C129.335 31.5745 130.619 31.3467 131.945 31.2055C133.544 31.0416 134.84 30.8953 135.835 30.7664C136.829 30.6262 137.551 30.4149 138.001 30.1335C138.463 29.8408 138.694 29.3903 138.694 28.7811V28.676C138.694 27.3524 138.297 26.3268 137.504 25.6011C136.711 24.8744 135.568 24.5116 134.076 24.5116C132.502 24.5116 131.253 24.8507 130.329 25.531C129.418 26.2103 128.802 27.0123 128.482 27.9379L122.479 27.0947C122.953 25.4548 123.735 24.0838 124.824 22.9829C125.913 21.8697 127.245 21.0388 128.82 20.4874C130.394 19.9256 132.135 19.6442 134.041 19.6442C135.355 19.6442 136.663 19.7967 137.966 20.1008C139.268 20.4059 140.458 20.91 141.535 21.612C142.613 22.3036 143.477 23.2468 144.128 24.4415C144.791 25.6362 145.123 27.1298 145.123 28.9213V46.9838H138.943V43.2761H138.729C138.339 44.0265 137.788 44.7285 137.078 45.3851C136.379 46.0293 135.497 46.5509 134.432 46.9488C133.378 47.3353 132.141 47.5281 130.72 47.5281ZM132.389 42.8545C133.68 42.8545 134.799 42.603 135.746 42.0989C136.693 41.5835 137.421 40.9042 137.93 40.061C138.451 39.2178 138.712 38.2984 138.712 37.3026V34.1227C138.51 34.2865 138.167 34.4391 137.682 34.5793C137.208 34.7195 136.675 34.8432 136.083 34.9483C135.491 35.0535 134.905 35.1473 134.325 35.2297C133.745 35.3112 133.242 35.3812 132.816 35.44C131.856 35.5688 130.998 35.7802 130.24 36.0729C129.483 36.3656 128.885 36.7759 128.447 37.3026C128.009 37.818 127.79 38.486 127.79 39.3055C127.79 40.4775 128.222 41.3609 129.086 41.9587C129.95 42.5566 131.051 42.8545 132.389 42.8545ZM152.523 57.1041C151.647 57.1041 150.835 57.034 150.09 56.8938C149.355 56.765 148.769 56.6124 148.331 56.4361L149.823 51.4822C150.758 51.7512 151.593 51.8801 152.327 51.8687C153.061 51.8563 153.707 51.6286 154.263 51.1833C154.831 50.7493 155.311 50.0236 155.702 49.0042L156.252 47.5456L146.36 19.9957H153.18L159.466 40.3775H159.751L166.055 19.9957H172.893L161.971 50.2514C161.462 51.6811 160.787 52.9047 159.946 53.9241C159.105 54.9549 158.075 55.7393 156.856 56.2784C155.648 56.8289 154.204 57.1041 152.523 57.1041ZM196.818 27.1298L190.957 27.7617C190.791 27.1762 190.501 26.6257 190.086 26.1103C189.684 25.5949 189.139 25.1795 188.453 24.8631C187.766 24.5466 186.925 24.3889 185.931 24.3889C184.594 24.3889 183.468 24.6755 182.557 25.2496C181.657 25.8238 181.213 26.567 181.225 27.4813C181.213 28.2657 181.503 28.9038 182.095 29.3965C182.698 29.8882 183.693 30.2922 185.079 30.6087L189.731 31.5921C192.313 32.1425 194.231 33.0156 195.485 34.2103C196.752 35.405 197.392 36.9687 197.404 38.9014C197.392 40.6001 196.889 42.0989 195.894 43.3998C194.911 44.6882 193.544 45.6953 191.792 46.422C190.04 47.1477 188.027 47.5105 185.753 47.5105C182.415 47.5105 179.727 46.8199 177.691 45.4376C175.654 44.044 174.441 42.1051 174.05 39.6219L180.319 39.0241C180.603 40.2425 181.207 41.1619 182.131 41.7835C183.054 42.404 184.256 42.7143 185.735 42.7143C187.263 42.7143 188.488 42.404 189.412 41.7835C190.347 41.1619 190.815 40.395 190.815 39.4817C190.815 38.7086 190.513 38.0695 189.909 37.5665C189.318 37.0625 188.393 36.6759 187.139 36.4069L182.486 35.44C179.869 34.9009 177.933 33.9938 176.678 32.7167C175.423 31.4282 174.802 29.8006 174.814 27.8317C174.802 26.1691 175.258 24.7281 176.181 23.5097C177.116 22.2799 178.413 21.3316 180.07 20.6636C181.74 19.9844 183.664 19.6442 185.842 19.6442C189.039 19.6442 191.554 20.3183 193.39 21.6656C195.238 23.0118 196.379 24.8332 196.818 27.1298ZM207.05 31.1705V46.9838H200.621V11H206.908V24.5817H207.228C207.867 23.0592 208.856 21.8583 210.194 20.9801C211.543 20.0895 213.26 19.6442 215.344 19.6442C217.238 19.6442 218.889 20.0369 220.299 20.8214C221.708 21.6068 222.796 22.7541 223.566 24.2652C224.348 25.7764 224.739 27.6215 224.739 29.8006V46.9838H218.309V30.7839C218.309 28.9687 217.836 27.5565 216.889 26.5494C215.953 25.53 214.64 25.0208 212.946 25.0208C211.81 25.0208 210.792 25.2671 209.892 25.7588C209.004 26.2392 208.305 26.936 207.796 27.8503C207.298 28.7636 207.05 29.8706 207.05 31.1705ZM241.285 47.5105C238.55 47.5105 236.188 46.9488 234.198 45.8242C232.221 44.6882 230.699 43.0833 229.634 41.0104C228.569 38.9251 228.036 36.4708 228.036 33.6475C228.036 30.8715 228.569 28.4358 229.634 26.3392C230.712 24.2302 232.215 22.5902 234.145 21.4192C236.075 20.2359 238.342 19.6442 240.947 19.6442C242.628 19.6442 244.215 19.9143 245.707 20.4523C247.21 20.9801 248.536 21.7996 249.684 22.9128C250.845 24.025 251.757 25.4424 252.419 27.1648C253.082 28.8749 253.414 30.9128 253.414 33.2795V35.2297H231.054V30.9427H247.252C247.239 29.7243 246.973 28.6409 246.453 27.6916C245.932 26.7309 245.203 25.9753 244.268 25.4249C243.345 24.8744 242.267 24.5992 241.036 24.5992C239.722 24.5992 238.568 24.9157 237.573 25.5486C236.579 26.1691 235.802 26.9886 235.246 28.008C234.701 29.0151 234.423 30.1222 234.411 31.3282V35.071C234.411 36.6409 234.701 37.9881 235.281 39.1127C235.862 40.2249 236.672 41.0805 237.714 41.6773C238.756 42.2628 239.976 42.5566 241.373 42.5566C242.309 42.5566 243.155 42.4277 243.912 42.17C244.671 41.9 245.327 41.5083 245.884 40.9929C246.44 40.4775 246.861 39.8384 247.145 39.0777L253.148 39.7446C252.768 41.3145 252.046 42.6854 250.981 43.8564C249.927 45.016 248.578 45.918 246.932 46.5622C245.286 47.1951 243.404 47.5105 241.285 47.5105ZM268.846 47.5105C266.111 47.5105 263.749 46.9488 261.76 45.8242C259.782 44.6882 258.261 43.0833 257.195 41.0104C256.13 38.9251 255.597 36.4708 255.597 33.6475C255.597 30.8715 256.13 28.4358 257.195 26.3392C258.273 24.2302 259.776 22.5902 261.706 21.4192C263.636 20.2359 265.904 19.6442 268.508 19.6442C270.189 19.6442 271.776 19.9143 273.268 20.4523C274.771 20.9801 276.097 21.7996 277.245 22.9128C278.406 24.025 279.318 25.4424 279.98 27.1648C280.644 28.8749 280.975 30.9128 280.975 33.2795V35.2297H258.616V30.9427H274.813C274.801 29.7243 274.535 28.6409 274.014 27.6916C273.493 26.7309 272.764 25.9753 271.829 25.4249C270.906 24.8744 269.828 24.5992 268.597 24.5992C267.283 24.5992 266.129 24.9157 265.134 25.5486C264.14 26.1691 263.363 26.9886 262.807 28.008C262.262 29.0151 261.984 30.1222 261.972 31.3282V35.071C261.972 36.6409 262.262 37.9881 262.842 39.1127C263.423 40.2249 264.234 41.0805 265.276 41.6773C266.318 42.2628 267.537 42.5566 268.934 42.5566C269.87 42.5566 270.716 42.4277 271.473 42.17C272.232 41.9 272.888 41.5083 273.445 40.9929C274.002 40.4775 274.422 39.8384 274.706 39.0777L280.709 39.7446C280.329 41.3145 279.607 42.6854 278.542 43.8564C277.488 45.016 276.139 45.918 274.493 46.5622C272.848 47.1951 270.965 47.5105 268.846 47.5105ZM297.952 19.9957V24.9157H282.271V19.9957H297.952ZM286.142 13.5296H292.571V38.8663C292.571 39.7219 292.701 40.3775 292.961 40.8341C293.233 41.2794 293.589 41.5835 294.027 41.7474C294.465 41.9123 294.95 41.9938 295.483 41.9938C295.886 41.9938 296.253 41.9649 296.584 41.9061C296.928 41.8474 297.188 41.7948 297.365 41.7474L298.449 46.7199C298.105 46.8374 297.614 46.9663 296.975 47.1065C296.347 47.2477 295.578 47.3291 294.666 47.3528C293.056 47.3992 291.606 47.159 290.315 46.6323C289.025 46.0932 288.001 45.2624 287.242 44.1378C286.496 43.0132 286.13 41.6072 286.142 39.9208V13.5296ZM322.413 27.1298L316.553 27.7617C316.387 27.1762 316.097 26.6257 315.683 26.1103C315.281 25.5949 314.736 25.1795 314.049 24.8631C313.363 24.5466 312.522 24.3889 311.528 24.3889C310.189 24.3889 309.065 24.6755 308.153 25.2496C307.253 25.8238 306.809 26.567 306.822 27.4813C306.809 28.2657 307.1 28.9038 307.692 29.3965C308.295 29.8882 309.29 30.2922 310.674 30.6087L315.328 31.5921C317.909 32.1425 319.826 33.0156 321.082 34.2103C322.349 35.405 322.989 36.9687 323 38.9014C322.989 40.6001 322.485 42.0989 321.49 43.3998C320.508 44.6882 319.14 45.6953 317.388 46.422C315.636 47.1477 313.623 47.5105 311.35 47.5105C308.011 47.5105 305.323 46.8199 303.286 45.4376C301.251 44.044 300.037 42.1051 299.646 39.6219L305.915 39.0241C306.2 40.2425 306.803 41.1619 307.727 41.7835C308.65 42.404 309.852 42.7143 311.332 42.7143C312.859 42.7143 314.085 42.404 315.008 41.7835C315.943 41.1619 316.411 40.395 316.411 39.4817C316.411 38.7086 316.109 38.0695 315.506 37.5665C314.914 37.0625 313.99 36.6759 312.735 36.4069L308.082 35.44C305.465 34.9009 303.529 33.9938 302.275 32.7167C301.019 31.4282 300.398 29.8006 300.41 27.8317C300.398 26.1691 300.854 24.7281 301.778 23.5097C302.712 22.2799 304.01 21.3316 305.667 20.6636C307.336 19.9844 309.26 19.6442 311.438 19.6442C314.636 19.6442 317.151 20.3183 318.987 21.6656C320.833 23.0118 321.976 24.8332 322.413 27.1298Z" fill="white"/>
<circle cx="34" cy="34" r="34" fill="#1331DD"/>
<circle cx="33.9998" cy="34.0001" r="30.4675" fill="#3433FA"/>
<path fill-rule="evenodd" clip-rule="evenodd" d="M34.4157 15.4662C45.0443 15.4662 53.6608 23.9671 53.6608 34.4531L53.6582 34.7673C53.4882 45.1087 44.9379 53.4402 34.4157 53.4402H21.7795C21.423 53.4402 21.1339 53.1549 21.1339 52.8031V47.7646H24.4764V50.1423H34.1743C42.9011 50.1423 50.1831 43.3054 50.3163 34.6968C50.4516 25.9348 43.2665 18.7641 34.4157 18.7641H24.4764V23.4355H27.2391C27.5961 23.4355 27.885 23.7208 27.885 24.0725V26.0964C27.885 26.448 27.5961 26.7334 27.2391 26.7334H18.5403C18.1836 26.7334 17.8946 26.448 17.8946 26.0964V24.0725C17.8946 23.7208 18.1836 23.4355 18.5403 23.4355H21.1339V16.1035C21.1339 15.7515 21.423 15.4662 21.7795 15.4662H34.4157ZM24.42 38.2111V41.5144H27.159C27.5126 41.5144 27.7991 41.7932 27.7991 42.1372V44.115C27.7991 44.4589 27.5126 44.7379 27.159 44.7379H18.5347C18.181 44.7379 17.8945 44.4589 17.8945 44.115V42.1372C17.8945 41.7932 18.181 41.5144 18.5347 41.5144H21.1059V38.2111H24.42ZM24.42 28.9648V32.2655H27.159C27.5126 32.2655 27.7991 32.5445 27.7991 32.8889V34.8685C27.7991 35.2125 27.5126 35.4916 27.159 35.4916H18.5347C18.181 35.4916 17.8945 35.2125 17.8945 34.8685V32.8889C17.8945 32.5445 18.181 32.2655 18.5347 32.2655H21.1059V28.9648H24.42ZM43.111 27.877C43.4676 27.877 43.7565 28.1594 43.7565 28.5076V30.5101C43.7565 30.8581 43.4676 31.1404 43.111 31.1404H32.2964C31.94 31.1404 31.6509 30.8581 31.6509 30.5101V28.5076C31.6509 28.1594 31.94 27.877 32.2964 27.877H43.111Z" fill="white"/>
</svg>
